<svg width="31" height="30" viewBox="0 0 31 30" fill="none" xmlns="http://www.w3.org/2000/svg">
<path d="M20.68 3.5376H11.32C7.99998 3.5376 7.26665 5.0876 6.83998 6.9876L5.33331 13.7501H26.6666L25.16 6.9876C24.7333 5.0876 24 3.5376 20.68 3.5376Z" stroke="#E56425" stroke-width="1.5" stroke-linecap="round" stroke-linejoin="round"/>
<path d="M29.32 24.775C29.4667 26.2375 28.2133 27.5 26.6133 27.5H24.1067C22.6667 27.5 22.4667 26.925 22.2133 26.2125L21.9467 25.4625C21.5733 24.4375 21.3333 23.75 19.4133 23.75H12.5867C10.6667 23.75 10.3867 24.525 10.0533 25.4625L9.78668 26.2125C9.53335 26.925 9.33335 27.5 7.89335 27.5H5.38668C3.78668 27.5 2.53335 26.2375 2.68001 24.775L3.42668 17.1625C3.61335 15.2875 4.00001 13.75 7.49335 13.75H24.5067C28 13.75 28.3867 15.2875 28.5733 17.1625L29.32 24.775Z" stroke="#E56425" stroke-width="1.5" stroke-linecap="round" stroke-linejoin="round"/>
<path d="M5.33333 10H4" stroke="#E56425" stroke-width="1.5" stroke-linecap="round" stroke-linejoin="round"/>
<path d="M28 10H26.6667" stroke="#E56425" stroke-width="1.5" stroke-linecap="round" stroke-linejoin="round"/>
<path d="M16 3.75V6.25" stroke="#E56425" stroke-width="1.5" stroke-linecap="round" stroke-linejoin="round"/>
<path d="M14 6.25H18" stroke="#E56425" stroke-width="1.5" stroke-linecap="round" stroke-linejoin="round"/>
<path d="M8 18.75H12" stroke="#E56425" stroke-width="1.5" stroke-linecap="round" stroke-linejoin="round"/>
<path d="M20 18.75H24" stroke="#E56425" stroke-width="1.5" stroke-linecap="round" stroke-linejoin="round"/>
</svg>
