<svg width="31" height="31" viewBox="0 0 31 31" fill="none" xmlns="http://www.w3.org/2000/svg">
<path d="M6.45837 7.74992V7.10409C6.45837 5.88604 6.45837 5.27767 6.83683 4.89921C7.21529 4.52075 7.82367 4.52075 9.04171 4.52075C10.2597 4.52075 10.8681 4.52075 11.2466 4.89921C11.625 5.27767 11.625 5.88604 11.625 7.10409V7.74992M19.375 6.45825H23.25" stroke="#E56425" stroke-width="1.5" stroke-linecap="round" stroke-linejoin="round"/>
<path d="M20.6667 2.58325H18.9449C16.5243 2.58325 15.5 3.78967 15.5 6.02813C15.5 7.14671 14.9872 7.74992 13.7782 7.74992H9.04167C6.60558 7.74992 5.38883 7.74992 4.63192 8.50684C3.875 9.26375 3.875 10.4805 3.875 12.9166V19.3749C3.875 23.6374 3.875 25.7687 5.19896 27.0926C6.52292 28.4166 8.65417 28.4166 12.9167 28.4166H18.0833C22.3458 28.4166 24.4771 28.4166 25.801 27.0926C27.125 25.7687 27.125 23.6374 27.125 19.3749V9.04159C27.125 5.99713 27.125 4.47425 26.1795 3.52875C25.2327 2.58325 23.7111 2.58325 20.6667 2.58325Z" stroke="#E56425" stroke-width="1.5" stroke-linecap="round" stroke-linejoin="round"/>
<path d="M11.625 18.8416C11.625 16.9506 13.2577 15.0815 14.4021 14.0017C14.6977 13.719 15.091 13.5613 15.5 13.5613C15.909 13.5613 16.3023 13.719 16.5979 14.0017C17.7423 15.0815 19.375 16.9506 19.375 18.8416C19.3717 19.3443 19.2684 19.8413 19.0711 20.3036C18.8738 20.766 18.5864 21.1845 18.2258 21.5347C17.8651 21.8849 17.4384 22.1598 16.9704 22.3434C16.5024 22.527 16.0026 22.6157 15.5 22.6042C13.0923 22.6042 11.625 20.6964 11.625 18.8416Z" stroke="#E56425" stroke-width="1.5" stroke-linecap="round" stroke-linejoin="round"/>
</svg>
