<svg width="38" height="35" viewBox="0 0 38 35" fill="none" xmlns="http://www.w3.org/2000/svg">
<path d="M17.3205 5.04053L18.9634 7.88604M22.2491 13.5771L23.8919 16.4226M27.1777 22.1136L28.8205 24.9591M2.88675 13.3739L23.094 1.70719C23.8596 1.26517 24.767 1.14104 25.6164 1.36211C26.4659 1.58319 27.1879 2.13136 27.6236 2.88604L30.0879 7.15431C29.3223 7.59634 28.7611 8.32005 28.5278 9.16625C28.2946 10.0124 28.4083 10.9118 28.844 11.6665C29.2797 12.4212 30.0017 12.9693 30.8512 13.1904C31.7007 13.4115 32.608 13.2874 33.3736 12.8453L35.8379 17.1136C36.2736 17.8683 36.3873 18.7676 36.1541 19.6138C35.9208 20.46 35.3596 21.1838 34.594 21.6258L14.3868 33.2924C13.6211 33.7345 12.7138 33.8586 11.8643 33.6375C11.0149 33.4164 10.2929 32.8683 9.85714 32.1136L7.39286 27.8453C8.15847 27.4033 8.71964 26.6796 8.95292 25.8334C9.18619 24.9872 9.07246 24.0878 8.63675 23.3332C8.20104 22.5785 7.47903 22.0303 6.62957 21.8092C5.7801 21.5882 4.87276 21.7123 4.10714 22.1543L1.64286 17.886C1.20714 17.1314 1.09342 16.232 1.32669 15.3858C1.55997 14.5396 2.12114 13.8159 2.88675 13.3739Z" stroke="#E56425" stroke-width="1.5" stroke-linecap="round" stroke-linejoin="round"/>
</svg>
