<svg width="23" height="23" viewBox="0 0 23 23" fill="none" xmlns="http://www.w3.org/2000/svg">
<path d="M11.3318 20.2C10.487 21.27 9.12063 21.27 8.27578 20.2L7.22233 18.85C6.47136 17.89 5.16759 17.82 4.31231 18.7C2.46617 20.59 0.943359 19.97 0.943359 17.3V6.04C0.943359 2.01 1.9238 1 5.86641 1H13.7516C17.6942 1 18.6747 2.01 18.6643 6.04V11.675" stroke="white" stroke-width="1.5" stroke-linecap="round" stroke-linejoin="round"/>
<path d="M5.11536 5H14.5025" stroke="white" stroke-width="1.5" stroke-linecap="round" stroke-linejoin="round"/>
<path d="M6.1582 9H13.4593" stroke="white" stroke-width="1.5" stroke-linecap="round" stroke-linejoin="round"/>
<path d="M21.8034 18C21.8034 18.75 21.5843 19.46 21.1984 20.06C20.9794 20.42 20.6978 20.74 20.3744 21C19.6443 21.63 18.6848 22 17.6313 22C16.1085 22 14.7839 21.22 14.0642 20.06C13.6783 19.46 13.4592 18.75 13.4592 18C13.4592 16.99 13.8556 16.07 14.5022 15.36C15.2637 14.53 16.3797 14 17.6313 14C19.9364 14 21.8034 15.79 21.8034 18Z" stroke="white" stroke-width="1.5" stroke-miterlimit="10" stroke-linecap="round" stroke-linejoin="round"/>
<path d="M19.1883 17.9785H16.0759" stroke="white" stroke-width="1.5" stroke-miterlimit="10" stroke-linecap="round" stroke-linejoin="round"/>
<path d="M17.631 16.5295V19.5135" stroke="white" stroke-width="1.5" stroke-miterlimit="10" stroke-linecap="round" stroke-linejoin="round"/>
</svg>
